<svg xmlns="http://www.w3.org/2000/svg" version="1.1" xlink="http://www.w3.org/1999/xlink" xmlns:svgjs="http://svgjs.com/svgjs" width="100%" height="100%" preserveAspectRatio="xMidYMid meet" viewBox="0.00022221951803658158 0.0000021064281554572517 299.99420166015625 62.49101638793945" overflow="visible"><defs id="SvgjsDefs21590"></defs><g id="SvgjsG21591" transform="scale(0.5611031012675686)" opacity="1"><g id="SvgjsG21592" class="YifUBvlZQ" transform="translate(-3.584200689712116, -3.590681268677518) scale(1.185434555522457)" light-content="false" non-strokable="false" fill="#1253be"><path d="M18.715 60.992l5.488-5.336a11.693 11.693 0 0 1 15.426-.547h10.406a9.634 9.634 0 0 1 6.832 2.84 9.65 9.65 0 0 1 2.84 6.832v2.195c0 .828-.504 1.54-1.223 1.844l8.04 1.594h20.78c2.66 0 5.082 1.09 6.832 2.84s2.84 4.168 2.84 6.832v2.195a2 2 0 0 1-2 2H34.628l-1.57 1.57 1.054 1.828a1.993 1.993 0 0 1-.734 2.72l-10.941 6.316a1.993 1.993 0 0 1-2.719-.735L3.288 67.523a1.993 1.993 0 0 1 .735-2.719l10.94-6.316a1.993 1.993 0 0 1 2.72.734l1.03 1.786zM74.863 45.82c1.195.54 2.184 1.207 2.887 1.969.843.918 1.308 1.969 1.308 3.12 0 2.134-1.597 3.923-4.176 5.087-1.027.465-2.234.84-3.566 1.105v5.184c0 1.105-.894 2-2 2h-4.984c-1.106 0-2-.895-2-2V57.1c-1.328-.265-2.54-.64-3.567-1.105-2.578-1.164-4.175-2.953-4.175-5.086 0-1.149.464-2.203 1.308-3.121.703-.766 1.692-1.438 2.879-1.973l1.64 3.64c-.703.317-1.245.669-1.581 1.036-.157.172-.246.316-.246.418 0 .418.695.941 1.816 1.445.566.254 1.215.477 1.926.656v-7.675c-1.328-.266-2.54-.641-3.567-1.106-2.578-1.164-4.175-2.953-4.175-5.086 0-1.148.464-2.203 1.308-3.12.703-.767 1.692-1.438 2.879-1.974l1.64 3.641c-.703.316-1.245.668-1.581 1.035-.157.172-.246.317-.246.418 0 .418.695.942 1.816 1.445.566.254 1.215.477 1.926.657v-8.813H49.777a2.006 2.006 0 0 1-1.664-.898c-3.68-5.555-7.356-11.11-11.035-16.664a1.999 1.999 0 0 1 1.59-3.21H53.33a2.022 2.022 0 0 1 1.547.741l3.73 4.59h3.724v-1.684a6.944 6.944 0 0 1-2.469-5.316c0-1.922.781-3.664 2.039-4.922 1.258-1.258 3-2.04 4.922-2.04s3.66.782 4.922 2.04a6.944 6.944 0 0 1 2.039 4.922 6.95 6.95 0 0 1-2.469 5.316v1.684h3.723l3.73-4.59a1.99 1.99 0 0 1 1.547-.734l14.664-.008a1.999 1.999 0 0 1 1.59 3.21c-3.68 5.555-7.356 11.11-11.035 16.665a1.992 1.992 0 0 1-1.664.894l-12.555.004v8.817a11.68 11.68 0 0 0 1.926-.657c1.12-.507 1.816-1.03 1.816-1.445 0-.101-.09-.246-.246-.418-.336-.367-.879-.719-1.574-1.031l1.625-3.64c1.195.538 2.183 1.206 2.886 1.968.844.918 1.309 1.969 1.309 3.121 0 2.133-1.598 3.922-4.176 5.086-1.027.465-2.234.84-3.566 1.106v7.675a11.68 11.68 0 0 0 1.926-.656c1.12-.508 1.816-1.031 1.816-1.445 0-.102-.09-.246-.246-.418-.336-.367-.879-.719-1.574-1.031l1.625-3.64zm-7.547 11.707l-.492.004-.492-.004v2.758h.984zm-.984-4l.492.004.492-.004v-7.766l-.492.004-.492-.004zm0-11.766l.492.004.492-.004V16.937a6.73 6.73 0 0 1-.492.02c-.164 0-.332-.008-.492-.02v24.824zm2.586-33.859a2.955 2.955 0 0 0-2.094-.867c-.817 0-1.559.332-2.094.867a2.955 2.955 0 0 0-.867 2.094 2.957 2.957 0 0 0 2.961 2.961 2.959 2.959 0 0 0 2.094-5.055zM83.48 25.496c-1.106 0-2-.895-2-2 0-1.106.894-2 2-2h3.914l.554-.832h-5.257c-1.106 0-2-.895-2-2 0-1.106.894-2 2-2h7.902l.664-1.004H81.253l-3.625 4.465a2 2 0 0 1-1.648.867h-4.668v7.441h11.484l1.945-2.937h-1.266zm-21.145 2.937v-7.44h-4.668a2 2 0 0 1-1.649-.868l-3.625-4.465H42.39l.664 1.004h7.903a1.999 1.999 0 1 1 0 4h-5.258l.554.832h3.915a1.999 1.999 0 1 1 0 4H48.9l1.945 2.938zM15.233 62.917l-7.496 4.329 14.438 25.008 7.496-4.329-14.438-25.008zM30.99 82.25l1.386-1.386a2 2 0 0 1 1.426-.598H92.98v-.195c0-1.559-.64-2.977-1.668-4.004s-2.445-1.668-4.004-1.668h-20.97l-.383-.04-27.367-5.417a1.999 1.999 0 0 1 .297-3.977h16.82v-.195c0-1.559-.64-2.977-1.668-4.004a5.656 5.656 0 0 0-4.004-1.668H38.881a2.034 2.034 0 0 1-1.367-.547c-1.48-1.394-3.386-2.094-5.293-2.094s-3.808.7-5.293 2.094l-6.164 5.996 10.22 17.7z"></path></g><g id="SvgjsG21593" class="text" transform="translate(335.65108540993145, 100.28234365226278) scale(1)" light-content="false" fill="#000000"><path d="M-188.53 0.38C-187.1 0.38 -185.77 0.1 -184.56 -0.45C-183.35 -1.01 -182.3 -1.87 -181.41 -3.02C-180.53 -4.18 -179.84 -5.65 -179.35 -7.42C-178.85 -9.19 -178.61 -11.29 -178.61 -13.72C-178.61 -16.14 -178.85 -18.23 -179.35 -20C-179.84 -21.76 -180.53 -23.22 -181.41 -24.37C-182.3 -25.52 -183.35 -26.38 -184.56 -26.93C-185.77 -27.49 -187.1 -27.77 -188.53 -27.77C-189.97 -27.77 -191.29 -27.49 -192.51 -26.93C-193.72 -26.38 -194.77 -25.52 -195.65 -24.37C-196.52 -23.22 -197.21 -21.76 -197.7 -20C-198.2 -18.23 -198.44 -16.14 -198.44 -13.72C-198.44 -11.29 -198.2 -9.19 -197.7 -7.42C-197.21 -5.65 -196.52 -4.18 -195.65 -3.02C-194.77 -1.87 -193.72 -1.01 -192.51 -0.45C-191.29 0.1 -189.97 0.38 -188.53 0.38ZM-188.53 -3.23C-189.27 -3.23 -189.98 -3.42 -190.65 -3.81C-191.33 -4.2 -191.92 -4.81 -192.44 -5.65C-192.96 -6.48 -193.37 -7.57 -193.67 -8.89C-193.97 -10.22 -194.12 -11.81 -194.12 -13.68C-194.12 -15.57 -193.97 -17.17 -193.67 -18.5C-193.37 -19.84 -192.96 -20.92 -192.44 -21.77C-191.92 -22.62 -191.33 -23.24 -190.65 -23.64C-189.98 -24.03 -189.27 -24.23 -188.53 -24.23C-187.78 -24.23 -187.07 -24.03 -186.4 -23.64C-185.72 -23.24 -185.13 -22.62 -184.62 -21.77C-184.11 -20.92 -183.7 -19.84 -183.4 -18.5C-183.1 -17.17 -182.95 -15.57 -182.95 -13.68C-182.95 -11.81 -183.1 -10.22 -183.4 -8.89C-183.7 -7.57 -184.11 -6.48 -184.62 -5.65C-185.13 -4.81 -185.72 -4.2 -186.4 -3.81C-187.07 -3.42 -187.78 -3.23 -188.53 -3.23Z M-173.06 -27.39L-173.06 0L-168.79 0L-168.79 -12.41L-161.26 -12.41L-161.26 -15.88L-168.79 -15.88L-168.79 -23.94L-158.87 -23.94L-158.87 -27.39Z M-143.57 -27.39L-143.57 0L-139.28 0L-139.28 -10.11C-138.91 -10.09 -138.55 -10.07 -138.21 -10.06C-137.86 -10.05 -137.53 -10.04 -137.2 -10.04C-135.29 -10.04 -133.65 -10.27 -132.31 -10.72C-130.96 -11.17 -129.86 -11.8 -129 -12.6C-128.15 -13.39 -127.52 -14.34 -127.13 -15.43C-126.73 -16.52 -126.53 -17.71 -126.53 -19C-126.53 -20.26 -126.72 -21.4 -127.1 -22.44C-127.48 -23.48 -128.09 -24.38 -128.92 -25.13C-129.76 -25.88 -130.85 -26.46 -132.19 -26.87C-133.53 -27.29 -135.17 -27.49 -137.1 -27.49L-138.72 -27.49C-139.22 -27.49 -139.72 -27.49 -140.23 -27.48C-140.73 -27.48 -141.25 -27.47 -141.79 -27.45C-142.32 -27.43 -142.92 -27.41 -143.57 -27.39ZM-139.28 -13.81L-139.28 -23.94C-138.96 -23.96 -138.66 -23.98 -138.35 -23.99C-138.05 -24 -137.76 -24 -137.48 -24C-136.25 -24 -135.21 -23.88 -134.36 -23.64C-133.51 -23.39 -132.83 -23.05 -132.31 -22.59C-131.8 -22.14 -131.42 -21.6 -131.2 -20.96C-130.97 -20.33 -130.86 -19.63 -130.86 -18.86C-130.86 -18.14 -130.96 -17.46 -131.15 -16.83C-131.35 -16.2 -131.68 -15.65 -132.15 -15.18C-132.61 -14.7 -133.23 -14.33 -134 -14.05C-134.76 -13.77 -135.72 -13.63 -136.87 -13.63C-137.24 -13.63 -137.63 -13.65 -138.02 -13.68C-138.42 -13.7 -138.84 -13.75 -139.28 -13.81Z M-122 -27.39L-122 0L-117.71 0L-117.71 -10.55C-117.09 -10.51 -116.47 -10.49 -115.87 -10.49C-115.63 -10.49 -115.41 -10.5 -115.19 -10.5C-114.97 -10.51 -114.75 -10.52 -114.54 -10.53L-109.15 -0.02L-104.45 -0.02L-110.37 -11.33C-108.53 -12.01 -107.16 -13.03 -106.29 -14.39C-105.41 -15.76 -104.97 -17.36 -104.97 -19.19C-104.97 -20.39 -105.16 -21.49 -105.54 -22.51C-105.92 -23.52 -106.52 -24.39 -107.36 -25.13C-108.2 -25.87 -109.29 -26.45 -110.63 -26.86C-111.97 -27.28 -113.61 -27.49 -115.53 -27.49L-117.16 -27.49C-117.66 -27.49 -118.16 -27.49 -118.66 -27.48C-119.17 -27.48 -119.69 -27.47 -120.22 -27.45C-120.76 -27.43 -121.35 -27.41 -122 -27.39ZM-117.71 -14.21L-117.71 -23.94C-117.35 -23.96 -117.01 -23.98 -116.69 -23.99C-116.36 -24 -116.04 -24 -115.73 -24C-114.53 -23.99 -113.52 -23.86 -112.68 -23.61C-111.85 -23.36 -111.18 -23.02 -110.65 -22.58C-110.13 -22.13 -109.75 -21.61 -109.52 -21C-109.29 -20.39 -109.17 -19.72 -109.17 -18.98C-109.17 -18.3 -109.28 -17.65 -109.49 -17.05C-109.69 -16.44 -110.04 -15.92 -110.51 -15.47C-110.99 -15.02 -111.62 -14.67 -112.4 -14.42C-113.18 -14.16 -114.13 -14.03 -115.27 -14.03C-115.65 -14.03 -116.03 -14.05 -116.44 -14.08C-116.85 -14.11 -117.27 -14.15 -117.71 -14.21Z M-99.55 -27.39L-99.55 0L-84.45 0L-84.45 -3.52L-95.28 -3.52L-95.28 -12.94L-87.56 -12.94L-87.56 -16.37L-95.28 -16.37L-95.28 -23.94L-85.15 -23.94L-85.15 -27.39Z M-69.98 0.38C-68.82 0.38 -67.79 0.26 -66.9 0.02C-66 -0.23 -65.27 -0.53 -64.7 -0.91L-64.7 -4.81C-65.36 -4.23 -66.11 -3.82 -66.95 -3.58C-67.79 -3.34 -68.62 -3.23 -69.46 -3.23C-70.6 -3.23 -71.62 -3.43 -72.53 -3.84C-73.44 -4.24 -74.21 -4.88 -74.85 -5.74C-75.49 -6.6 -75.97 -7.69 -76.31 -9.03C-76.65 -10.37 -76.82 -11.96 -76.82 -13.81C-76.82 -15.64 -76.65 -17.21 -76.33 -18.52C-76 -19.83 -75.54 -20.9 -74.95 -21.74C-74.36 -22.58 -73.65 -23.19 -72.82 -23.58C-71.99 -23.97 -71.07 -24.16 -70.07 -24.16C-69.09 -24.16 -68.16 -24.01 -67.26 -23.7C-66.35 -23.39 -65.54 -22.91 -64.81 -22.24L-64.81 -26.5C-65.07 -26.68 -65.41 -26.86 -65.83 -27.01C-66.24 -27.17 -66.7 -27.3 -67.2 -27.41C-67.71 -27.52 -68.25 -27.61 -68.82 -27.67C-69.38 -27.74 -69.96 -27.77 -70.54 -27.77C-72.13 -27.77 -73.58 -27.49 -74.88 -26.94C-76.18 -26.39 -77.3 -25.54 -78.23 -24.39C-79.16 -23.24 -79.88 -21.78 -80.39 -20.02C-80.9 -18.26 -81.16 -16.18 -81.16 -13.77C-81.16 -11.35 -80.88 -9.26 -80.34 -7.48C-79.79 -5.7 -79.03 -4.23 -78.05 -3.07C-77.06 -1.91 -75.89 -1.04 -74.52 -0.47C-73.14 0.1 -71.63 0.38 -69.98 0.38Z M-60.06 -27.39L-60.06 0L-55.79 0L-55.79 -27.39Z M-49.94 -5.13L-49.95 -0.99C-49.58 -0.77 -49.15 -0.58 -48.67 -0.41C-48.19 -0.24 -47.68 -0.1 -47.16 0.02C-46.63 0.13 -46.09 0.22 -45.54 0.29C-45 0.35 -44.47 0.38 -43.96 0.38C-42.71 0.38 -41.59 0.21 -40.58 -0.15C-39.58 -0.5 -38.72 -1 -38.02 -1.64C-37.32 -2.28 -36.78 -3.04 -36.4 -3.94C-36.02 -4.83 -35.83 -5.82 -35.83 -6.9C-35.83 -7.87 -35.98 -8.73 -36.26 -9.5C-36.54 -10.27 -36.92 -10.96 -37.39 -11.58C-37.86 -12.21 -38.4 -12.77 -39.01 -13.28C-39.61 -13.8 -40.22 -14.28 -40.84 -14.75C-41.47 -15.21 -42.08 -15.66 -42.68 -16.1C-43.29 -16.53 -43.83 -16.99 -44.3 -17.47C-44.77 -17.94 -45.14 -18.45 -45.43 -18.99C-45.71 -19.53 -45.86 -20.14 -45.86 -20.81C-45.86 -21.28 -45.78 -21.71 -45.62 -22.11C-45.46 -22.51 -45.23 -22.87 -44.91 -23.17C-44.59 -23.47 -44.19 -23.71 -43.7 -23.88C-43.22 -24.06 -42.65 -24.14 -42 -24.14C-41.27 -24.14 -40.53 -24.03 -39.79 -23.8C-39.05 -23.56 -38.26 -23.17 -37.42 -22.63L-37.4 -26.67C-38.05 -27 -38.82 -27.26 -39.7 -27.45C-40.59 -27.64 -41.47 -27.74 -42.35 -27.74C-43.46 -27.74 -44.48 -27.57 -45.42 -27.24C-46.36 -26.91 -47.18 -26.43 -47.86 -25.82C-48.55 -25.2 -49.08 -24.45 -49.47 -23.56C-49.86 -22.67 -50.06 -21.67 -50.06 -20.55C-50.06 -19.58 -49.92 -18.7 -49.63 -17.91C-49.35 -17.13 -48.97 -16.41 -48.5 -15.77C-48.03 -15.12 -47.49 -14.54 -46.89 -14.01C-46.28 -13.48 -45.66 -12.98 -45.04 -12.5C-44.41 -12.02 -43.8 -11.56 -43.2 -11.12C-42.6 -10.68 -42.07 -10.22 -41.59 -9.74C-41.12 -9.27 -40.74 -8.77 -40.45 -8.25C-40.16 -7.72 -40.02 -7.14 -40.02 -6.5C-40.02 -6.11 -40.09 -5.72 -40.23 -5.33C-40.38 -4.94 -40.62 -4.59 -40.95 -4.28C-41.28 -3.97 -41.72 -3.72 -42.27 -3.53C-42.81 -3.34 -43.48 -3.24 -44.27 -3.24C-45.17 -3.24 -46.08 -3.38 -47.02 -3.66C-47.95 -3.94 -48.92 -4.43 -49.94 -5.13Z M-30.45 -27.39L-30.45 0L-26.18 0L-26.18 -27.39Z M-10.97 0.38C-9.54 0.38 -8.22 0.1 -7.01 -0.45C-5.79 -1.01 -4.74 -1.87 -3.86 -3.02C-2.98 -4.18 -2.29 -5.65 -1.8 -7.42C-1.3 -9.19 -1.05 -11.29 -1.05 -13.72C-1.05 -16.14 -1.3 -18.23 -1.8 -20C-2.29 -21.76 -2.98 -23.22 -3.86 -24.37C-4.74 -25.52 -5.79 -26.38 -7.01 -26.93C-8.22 -27.49 -9.54 -27.77 -10.97 -27.77C-12.41 -27.77 -13.74 -27.49 -14.96 -26.93C-16.17 -26.38 -17.22 -25.52 -18.1 -24.37C-18.97 -23.22 -19.66 -21.76 -20.15 -20C-20.65 -18.23 -20.89 -16.14 -20.89 -13.72C-20.89 -11.29 -20.65 -9.19 -20.15 -7.42C-19.66 -5.65 -18.97 -4.18 -18.1 -3.02C-17.22 -1.87 -16.17 -1.01 -14.96 -0.45C-13.74 0.1 -12.41 0.38 -10.97 0.38ZM-10.97 -3.23C-11.72 -3.23 -12.43 -3.42 -13.1 -3.81C-13.77 -4.2 -14.37 -4.81 -14.89 -5.65C-15.4 -6.48 -15.81 -7.57 -16.12 -8.89C-16.42 -10.22 -16.57 -11.81 -16.57 -13.68C-16.57 -15.57 -16.42 -17.17 -16.12 -18.5C-15.81 -19.84 -15.4 -20.92 -14.89 -21.77C-14.37 -22.62 -13.77 -23.24 -13.1 -23.64C-12.43 -24.03 -11.72 -24.23 -10.97 -24.23C-10.23 -24.23 -9.52 -24.03 -8.85 -23.64C-8.17 -23.24 -7.58 -22.62 -7.07 -21.77C-6.56 -20.92 -6.15 -19.84 -5.85 -18.5C-5.55 -17.17 -5.4 -15.57 -5.4 -13.68C-5.4 -11.81 -5.55 -10.22 -5.85 -8.89C-6.15 -7.57 -6.56 -6.48 -7.07 -5.65C-7.58 -4.81 -8.17 -4.2 -8.85 -3.81C-9.52 -3.42 -10.23 -3.23 -10.97 -3.23Z M4.49 -27.39L4.49 0L8.76 0L8.76 -13.3L8.31 -19.68L8.52 -19.68L9.51 -17.31L19.46 0L23.02 0L23.02 -27.39L18.75 -27.39L18.75 -12.24L19.22 -6.85L19.01 -6.85L17.82 -10.02L8.08 -27.39Z M41.15 -27.39L41.15 0L45.42 0L45.42 -15.08L44.78 -22.05L44.97 -22.05L51.92 -6.64L53.88 -6.64L60.64 -22.05L60.83 -22.05L60.38 -15.08L60.38 0L64.65 0L64.65 -27.39L58.98 -27.39L54.08 -15.92L53.07 -13.07L52.74 -13.07L51.71 -15.92L46.82 -27.39Z M72.11 -27.39L72.11 0L87.21 0L87.21 -3.52L76.38 -3.52L76.38 -12.94L84.1 -12.94L84.1 -16.37L76.38 -16.37L76.38 -23.94L86.51 -23.94L86.51 -27.39Z M92.21 -27.39L92.21 0C93.1 0 93.94 0.02 94.7 0.06C95.47 0.1 96.27 0.12 97.11 0.12C99.6 0.12 101.71 -0.19 103.44 -0.82C105.17 -1.45 106.57 -2.37 107.65 -3.57C108.72 -4.78 109.5 -6.27 109.98 -8.04C110.46 -9.8 110.71 -11.83 110.71 -14.1C110.71 -16.28 110.48 -18.2 110.03 -19.86C109.59 -21.53 108.85 -22.93 107.82 -24.06C106.79 -25.18 105.44 -26.04 103.76 -26.62C102.08 -27.2 100 -27.49 97.53 -27.49C97.16 -27.49 96.74 -27.49 96.29 -27.47C95.84 -27.46 95.37 -27.45 94.89 -27.44C94.4 -27.43 93.93 -27.42 93.47 -27.4C93.01 -27.39 92.59 -27.39 92.21 -27.39ZM96.48 -3.43L96.48 -23.97C96.67 -23.98 96.85 -23.99 97.03 -24C97.21 -24 97.43 -24 97.7 -24C99.34 -24 100.71 -23.82 101.82 -23.46C102.93 -23.1 103.82 -22.52 104.49 -21.72C105.16 -20.92 105.64 -19.88 105.93 -18.61C106.22 -17.34 106.37 -15.79 106.37 -13.96C106.37 -12.12 106.22 -10.53 105.93 -9.2C105.64 -7.87 105.16 -6.77 104.5 -5.91C103.84 -5.05 102.96 -4.41 101.88 -4C100.79 -3.59 99.45 -3.38 97.86 -3.38C97.57 -3.38 97.32 -3.38 97.12 -3.39C96.91 -3.4 96.7 -3.41 96.48 -3.43Z M115.6 -27.39L115.6 0L119.88 0L119.88 -27.39Z M136.52 0.38C137.69 0.38 138.71 0.26 139.61 0.02C140.5 -0.23 141.24 -0.53 141.81 -0.91L141.81 -4.81C141.14 -4.23 140.39 -3.82 139.56 -3.58C138.72 -3.34 137.88 -3.23 137.05 -3.23C135.91 -3.23 134.89 -3.43 133.98 -3.84C133.07 -4.24 132.3 -4.88 131.66 -5.74C131.02 -6.6 130.53 -7.69 130.2 -9.03C129.86 -10.37 129.69 -11.96 129.69 -13.81C129.69 -15.64 129.85 -17.21 130.18 -18.52C130.5 -19.83 130.96 -20.9 131.56 -21.74C132.15 -22.58 132.86 -23.19 133.69 -23.58C134.52 -23.97 135.44 -24.16 136.44 -24.16C137.41 -24.16 138.35 -24.01 139.25 -23.7C140.15 -23.39 140.97 -22.91 141.7 -22.24L141.7 -26.5C141.43 -26.68 141.09 -26.86 140.68 -27.01C140.27 -27.17 139.81 -27.3 139.3 -27.41C138.8 -27.52 138.26 -27.61 137.69 -27.67C137.12 -27.74 136.55 -27.77 135.97 -27.77C134.37 -27.77 132.93 -27.49 131.63 -26.94C130.32 -26.39 129.21 -25.54 128.28 -24.39C127.35 -23.24 126.63 -21.78 126.12 -20.02C125.61 -18.26 125.35 -16.18 125.35 -13.77C125.35 -11.35 125.62 -9.26 126.17 -7.48C126.72 -5.7 127.48 -4.23 128.46 -3.07C129.44 -1.91 130.62 -1.04 131.99 -0.47C133.36 0.1 134.87 0.38 136.52 0.38Z M146.44 -27.39L146.44 0L150.71 0L150.71 -27.39Z M157.9 -27.39L157.9 0L162.17 0L162.17 -13.3L161.71 -19.68L161.92 -19.68L162.92 -17.31L172.87 0L176.43 0L176.43 -27.39L172.16 -27.39L172.16 -12.24L172.63 -6.85L172.42 -6.85L171.23 -10.02L161.49 -27.39Z M183.91 -27.39L183.91 0L199 0L199 -3.52L188.18 -3.52L188.18 -12.94L195.9 -12.94L195.9 -16.37L188.18 -16.37L188.18 -23.94L198.31 -23.94L198.31 -27.39Z"></path></g><g id="SvgjsG21594" class="text" transform="translate(320.47108552437237, 55.3684681792507) scale(1)" light-content="false" fill="#000000"><path d="M-183.13 -30.17L-183.13 0C-181.85 0.06 -180.61 0.1 -179.41 0.12C-178.22 0.13 -177.07 0.13 -175.96 0.13C-173.75 0.13 -171.85 -0.06 -170.27 -0.45C-168.69 -0.84 -167.4 -1.41 -166.39 -2.16C-165.39 -2.91 -164.65 -3.82 -164.17 -4.89C-163.7 -5.96 -163.46 -7.18 -163.46 -8.55C-163.46 -10.45 -163.9 -12.02 -164.78 -13.24C-165.66 -14.46 -167.03 -15.39 -168.92 -16.02C-167.66 -16.79 -166.71 -17.71 -166.07 -18.79C-165.43 -19.87 -165.11 -21.22 -165.11 -22.83C-165.11 -23.91 -165.28 -24.9 -165.61 -25.81C-165.95 -26.72 -166.53 -27.5 -167.37 -28.16C-168.21 -28.82 -169.35 -29.34 -170.78 -29.72C-172.21 -30.1 -174.03 -30.29 -176.21 -30.29L-177.94 -30.29C-178.48 -30.29 -179.02 -30.28 -179.56 -30.28C-180.09 -30.27 -180.65 -30.26 -181.23 -30.24C-181.8 -30.22 -182.44 -30.2 -183.13 -30.17ZM-178.4 -17.4L-178.4 -26.37C-177.99 -26.39 -177.6 -26.41 -177.21 -26.43C-176.83 -26.44 -176.47 -26.45 -176.14 -26.45C-174.93 -26.45 -173.92 -26.34 -173.1 -26.14C-172.28 -25.93 -171.63 -25.64 -171.14 -25.26C-170.66 -24.89 -170.31 -24.43 -170.1 -23.89C-169.89 -23.35 -169.78 -22.75 -169.78 -22.09C-169.78 -21.43 -169.88 -20.81 -170.09 -20.23C-170.29 -19.65 -170.65 -19.14 -171.15 -18.72C-171.66 -18.29 -172.34 -17.95 -173.18 -17.7C-174.03 -17.45 -175.09 -17.32 -176.37 -17.32C-176.68 -17.32 -177 -17.33 -177.34 -17.34C-177.68 -17.35 -178.03 -17.37 -178.4 -17.4ZM-178.38 -3.78L-178.4 -3.76L-178.4 -13.89L-178.38 -13.87C-177.87 -13.92 -177.38 -13.96 -176.91 -13.99C-176.43 -14.02 -175.97 -14.04 -175.52 -14.04C-173 -14.04 -171.14 -13.58 -169.93 -12.68C-168.73 -11.77 -168.13 -10.46 -168.13 -8.76C-168.13 -8.03 -168.25 -7.35 -168.49 -6.73C-168.74 -6.11 -169.16 -5.57 -169.75 -5.12C-170.35 -4.66 -171.15 -4.31 -172.16 -4.06C-173.17 -3.81 -174.45 -3.69 -175.98 -3.69C-176.36 -3.69 -176.74 -3.7 -177.14 -3.72C-177.53 -3.74 -177.95 -3.76 -178.38 -3.78Z M-152.5 -30.17L-160.87 0L-155.9 0L-154.01 -7.53L-144.33 -7.53L-142.34 0L-137.34 0L-146.14 -30.17ZM-145.33 -11.23L-153.07 -11.23L-149.58 -25.14L-149.02 -25.14Z M-132.79 -30.17L-132.79 0L-118.85 0L-118.85 -3.88L-128.09 -3.88L-128.09 -30.17Z M-109.4 -26.29L-109.4 0L-104.7 0L-104.7 -26.29L-97.57 -26.29L-97.57 -30.17L-116.54 -30.17L-116.54 -26.29Z M-92.5 -30.17L-92.5 0L-87.8 0L-87.8 -30.17Z M-69.45 0.42C-68.17 0.42 -67.04 0.29 -66.06 0.02C-65.07 -0.25 -64.26 -0.59 -63.64 -1L-63.64 -5.3C-64.37 -4.66 -65.19 -4.21 -66.11 -3.95C-67.03 -3.68 -67.96 -3.55 -68.88 -3.55C-70.13 -3.55 -71.26 -3.78 -72.26 -4.23C-73.26 -4.67 -74.11 -5.37 -74.81 -6.32C-75.52 -7.27 -76.05 -8.48 -76.43 -9.95C-76.8 -11.42 -76.98 -13.17 -76.98 -15.21C-76.98 -17.23 -76.8 -18.96 -76.45 -20.41C-76.09 -21.85 -75.58 -23.03 -74.93 -23.95C-74.27 -24.87 -73.49 -25.55 -72.58 -25.97C-71.66 -26.4 -70.65 -26.62 -69.55 -26.62C-68.48 -26.62 -67.44 -26.45 -66.45 -26.11C-65.46 -25.77 -64.56 -25.24 -63.75 -24.51L-63.75 -29.19C-64.05 -29.4 -64.42 -29.59 -64.87 -29.76C-65.33 -29.93 -65.83 -30.08 -66.39 -30.2C-66.95 -30.32 -67.54 -30.42 -68.17 -30.49C-68.8 -30.56 -69.43 -30.59 -70.07 -30.59C-71.82 -30.59 -73.42 -30.29 -74.85 -29.68C-76.29 -29.07 -77.51 -28.14 -78.54 -26.87C-79.56 -25.6 -80.36 -24 -80.92 -22.06C-81.48 -20.12 -81.76 -17.82 -81.76 -15.17C-81.76 -12.51 -81.46 -10.2 -80.86 -8.24C-80.26 -6.28 -79.42 -4.66 -78.34 -3.38C-77.25 -2.1 -75.96 -1.15 -74.45 -0.52C-72.94 0.11 -71.27 0.42 -69.45 0.42Z M-41.76 -30.17L-50.13 0L-45.16 0L-43.28 -7.53L-33.6 -7.53L-31.6 0L-26.61 0L-35.4 -30.17ZM-34.6 -11.23L-42.34 -11.23L-38.84 -25.14L-38.28 -25.14Z M-23.52 -5.65L-23.54 -1.09C-23.13 -0.85 -22.66 -0.64 -22.12 -0.45C-21.59 -0.27 -21.04 -0.11 -20.45 0.02C-19.87 0.15 -19.28 0.25 -18.68 0.32C-18.08 0.39 -17.49 0.42 -16.93 0.42C-15.56 0.42 -14.32 0.23 -13.21 -0.16C-12.11 -0.55 -11.16 -1.1 -10.39 -1.81C-9.62 -2.51 -9.02 -3.35 -8.6 -4.34C-8.19 -5.33 -7.98 -6.41 -7.98 -7.61C-7.98 -8.67 -8.14 -9.62 -8.45 -10.47C-8.76 -11.31 -9.18 -12.08 -9.7 -12.76C-10.22 -13.45 -10.81 -14.07 -11.47 -14.63C-12.14 -15.2 -12.82 -15.74 -13.5 -16.25C-14.19 -16.76 -14.86 -17.26 -15.53 -17.74C-16.19 -18.22 -16.79 -18.72 -17.3 -19.24C-17.82 -19.77 -18.24 -20.33 -18.55 -20.92C-18.87 -21.52 -19.02 -22.19 -19.02 -22.93C-19.02 -23.44 -18.94 -23.92 -18.76 -24.36C-18.59 -24.8 -18.33 -25.19 -17.98 -25.52C-17.62 -25.86 -17.18 -26.12 -16.65 -26.31C-16.12 -26.5 -15.5 -26.6 -14.78 -26.6C-13.97 -26.6 -13.16 -26.47 -12.34 -26.21C-11.52 -25.96 -10.65 -25.53 -9.73 -24.93L-9.71 -29.38C-10.43 -29.74 -11.27 -30.03 -12.24 -30.24C-13.22 -30.45 -14.19 -30.56 -15.16 -30.56C-16.38 -30.56 -17.51 -30.37 -18.54 -30.01C-19.58 -29.64 -20.48 -29.12 -21.23 -28.44C-21.99 -27.76 -22.58 -26.93 -23.01 -25.96C-23.44 -24.98 -23.65 -23.87 -23.65 -22.64C-23.65 -21.57 -23.49 -20.6 -23.18 -19.73C-22.87 -18.87 -22.45 -18.08 -21.93 -17.37C-21.41 -16.66 -20.82 -16.01 -20.16 -15.43C-19.49 -14.85 -18.81 -14.29 -18.12 -13.77C-17.43 -13.24 -16.75 -12.74 -16.09 -12.25C-15.43 -11.77 -14.85 -11.26 -14.33 -10.74C-13.81 -10.21 -13.39 -9.66 -13.07 -9.08C-12.75 -8.51 -12.59 -7.87 -12.59 -7.16C-12.59 -6.73 -12.67 -6.3 -12.83 -5.87C-12.99 -5.44 -13.25 -5.05 -13.62 -4.71C-13.98 -4.38 -14.46 -4.1 -15.07 -3.89C-15.67 -3.68 -16.4 -3.57 -17.27 -3.57C-18.26 -3.57 -19.27 -3.73 -20.3 -4.03C-21.33 -4.34 -22.4 -4.88 -23.52 -5.65Z M-3.18 -5.65L-3.2 -1.09C-2.79 -0.85 -2.32 -0.64 -1.79 -0.45C-1.25 -0.27 -0.7 -0.11 -0.12 0.02C0.47 0.15 1.06 0.25 1.66 0.32C2.26 0.39 2.85 0.42 3.41 0.42C4.78 0.42 6.02 0.23 7.13 -0.16C8.23 -0.55 9.17 -1.1 9.95 -1.81C10.72 -2.51 11.32 -3.35 11.73 -4.34C12.15 -5.33 12.36 -6.41 12.36 -7.61C12.36 -8.67 12.2 -9.62 11.89 -10.47C11.57 -11.31 11.16 -12.08 10.64 -12.76C10.12 -13.45 9.53 -14.07 8.86 -14.63C8.2 -15.2 7.52 -15.74 6.84 -16.25C6.15 -16.76 5.48 -17.26 4.81 -17.74C4.15 -18.22 3.55 -18.72 3.03 -19.24C2.52 -19.77 2.1 -20.33 1.79 -20.92C1.47 -21.52 1.32 -22.19 1.32 -22.93C1.32 -23.44 1.4 -23.92 1.57 -24.36C1.75 -24.8 2.01 -25.19 2.36 -25.52C2.71 -25.86 3.16 -26.12 3.69 -26.31C4.22 -26.5 4.84 -26.6 5.56 -26.6C6.37 -26.6 7.18 -26.47 8 -26.21C8.82 -25.96 9.69 -25.53 10.61 -24.93L10.63 -29.38C9.91 -29.74 9.07 -30.03 8.09 -30.24C7.12 -30.45 6.15 -30.56 5.18 -30.56C3.96 -30.56 2.83 -30.37 1.8 -30.01C0.76 -29.64 -0.14 -29.12 -0.89 -28.44C-1.65 -27.76 -2.24 -26.93 -2.67 -25.96C-3.1 -24.98 -3.31 -23.87 -3.31 -22.64C-3.31 -21.57 -3.16 -20.6 -2.84 -19.73C-2.53 -18.87 -2.11 -18.08 -1.59 -17.37C-1.08 -16.66 -0.48 -16.01 0.18 -15.43C0.85 -14.85 1.53 -14.29 2.22 -13.77C2.91 -13.24 3.58 -12.74 4.24 -12.25C4.9 -11.77 5.49 -11.26 6.01 -10.74C6.53 -10.21 6.95 -9.66 7.27 -9.08C7.59 -8.51 7.75 -7.87 7.75 -7.16C7.75 -6.73 7.67 -6.3 7.51 -5.87C7.35 -5.44 7.09 -5.05 6.72 -4.71C6.36 -4.38 5.87 -4.1 5.27 -3.89C4.67 -3.68 3.93 -3.57 3.06 -3.57C2.08 -3.57 1.07 -3.73 0.04 -4.03C-0.99 -4.34 -2.06 -4.88 -3.18 -5.65Z M27.45 0.42C29.03 0.42 30.48 0.12 31.82 -0.5C33.16 -1.11 34.32 -2.06 35.29 -3.33C36.26 -4.61 37.02 -6.22 37.56 -8.17C38.11 -10.12 38.38 -12.44 38.38 -15.11C38.38 -17.78 38.11 -20.08 37.56 -22.03C37.02 -23.97 36.26 -25.58 35.29 -26.85C34.32 -28.12 33.16 -29.06 31.82 -29.67C30.48 -30.29 29.03 -30.59 27.45 -30.59C25.87 -30.59 24.4 -30.29 23.07 -29.67C21.73 -29.06 20.57 -28.12 19.61 -26.85C18.64 -25.58 17.89 -23.97 17.34 -22.03C16.8 -20.08 16.53 -17.78 16.53 -15.11C16.53 -12.44 16.8 -10.12 17.34 -8.17C17.89 -6.22 18.64 -4.61 19.61 -3.33C20.57 -2.06 21.73 -1.11 23.07 -0.5C24.4 0.12 25.87 0.42 27.45 0.42ZM27.45 -3.55C26.63 -3.55 25.85 -3.77 25.11 -4.2C24.37 -4.63 23.71 -5.3 23.14 -6.22C22.57 -7.14 22.12 -8.33 21.79 -9.79C21.46 -11.25 21.29 -13.01 21.29 -15.08C21.29 -17.15 21.46 -18.92 21.79 -20.39C22.12 -21.85 22.57 -23.05 23.14 -23.99C23.71 -24.92 24.37 -25.61 25.11 -26.04C25.85 -26.48 26.63 -26.69 27.45 -26.69C28.27 -26.69 29.05 -26.48 29.8 -26.04C30.54 -25.61 31.19 -24.92 31.76 -23.99C32.32 -23.05 32.77 -21.85 33.1 -20.39C33.43 -18.92 33.6 -17.15 33.6 -15.08C33.6 -13.01 33.43 -11.25 33.1 -9.79C32.77 -8.33 32.32 -7.14 31.76 -6.22C31.19 -5.3 30.54 -4.63 29.8 -4.2C29.05 -3.77 28.27 -3.55 27.45 -3.55Z M54.92 0.42C56.2 0.42 57.33 0.29 58.32 0.02C59.3 -0.25 60.11 -0.59 60.74 -1L60.74 -5.3C60.01 -4.66 59.18 -4.21 58.26 -3.95C57.34 -3.68 56.41 -3.55 55.49 -3.55C54.24 -3.55 53.11 -3.78 52.11 -4.23C51.11 -4.67 50.26 -5.37 49.56 -6.32C48.85 -7.27 48.32 -8.48 47.95 -9.95C47.57 -11.42 47.39 -13.17 47.39 -15.21C47.39 -17.23 47.57 -18.96 47.93 -20.41C48.28 -21.85 48.79 -23.03 49.44 -23.95C50.1 -24.87 50.88 -25.55 51.8 -25.97C52.71 -26.4 53.72 -26.62 54.82 -26.62C55.9 -26.62 56.93 -26.45 57.92 -26.11C58.91 -25.77 59.81 -25.24 60.62 -24.51L60.62 -29.19C60.33 -29.4 59.95 -29.59 59.5 -29.76C59.04 -29.93 58.54 -30.08 57.98 -30.2C57.42 -30.32 56.83 -30.42 56.2 -30.49C55.58 -30.56 54.94 -30.59 54.3 -30.59C52.55 -30.59 50.95 -30.29 49.52 -29.68C48.09 -29.07 46.86 -28.14 45.83 -26.87C44.81 -25.6 44.01 -24 43.45 -22.06C42.89 -20.12 42.61 -17.82 42.61 -15.17C42.61 -12.51 42.91 -10.2 43.51 -8.24C44.11 -6.28 44.95 -4.66 46.03 -3.38C47.12 -2.1 48.41 -1.15 49.92 -0.52C51.43 0.11 53.1 0.42 54.92 0.42Z M65.84 -30.17L65.84 0L70.55 0L70.55 -30.17Z M83.17 -30.17L74.79 0L79.77 0L81.65 -7.53L91.33 -7.53L93.33 0L98.32 0L89.52 -30.17ZM90.33 -11.23L82.59 -11.23L86.09 -25.14L86.64 -25.14Z M107.17 -26.29L107.17 0L111.88 0L111.88 -26.29L119 -26.29L119 -30.17L100.03 -30.17L100.03 -26.29Z M124.07 -30.17L124.07 0L128.78 0L128.78 -30.17Z M145.53 0.42C147.1 0.42 148.56 0.12 149.89 -0.5C151.23 -1.11 152.39 -2.06 153.36 -3.33C154.33 -4.61 155.09 -6.22 155.64 -8.17C156.18 -10.12 156.45 -12.44 156.45 -15.11C156.45 -17.78 156.18 -20.08 155.64 -22.03C155.09 -23.97 154.33 -25.58 153.36 -26.85C152.39 -28.12 151.23 -29.06 149.89 -29.67C148.56 -30.29 147.1 -30.59 145.53 -30.59C143.94 -30.59 142.47 -30.29 141.14 -29.67C139.8 -29.06 138.65 -28.12 137.68 -26.85C136.71 -25.58 135.96 -23.97 135.41 -22.03C134.87 -20.08 134.6 -17.78 134.6 -15.11C134.6 -12.44 134.87 -10.12 135.41 -8.17C135.96 -6.22 136.71 -4.61 137.68 -3.33C138.65 -2.06 139.8 -1.11 141.14 -0.5C142.47 0.12 143.94 0.42 145.53 0.42ZM145.53 -3.55C144.71 -3.55 143.92 -3.77 143.18 -4.2C142.44 -4.63 141.78 -5.3 141.21 -6.22C140.64 -7.14 140.19 -8.33 139.86 -9.79C139.53 -11.25 139.36 -13.01 139.36 -15.08C139.36 -17.15 139.53 -18.92 139.86 -20.39C140.19 -21.85 140.64 -23.05 141.21 -23.99C141.78 -24.92 142.44 -25.61 143.18 -26.04C143.92 -26.48 144.71 -26.69 145.53 -26.69C146.34 -26.69 147.13 -26.48 147.87 -26.04C148.61 -25.61 149.26 -24.92 149.83 -23.99C150.39 -23.05 150.84 -21.85 151.17 -20.39C151.5 -18.92 151.67 -17.15 151.67 -15.08C151.67 -13.01 151.5 -11.25 151.17 -9.79C150.84 -8.33 150.39 -7.14 149.83 -6.22C149.26 -5.3 148.61 -4.63 147.87 -4.2C147.13 -3.77 146.34 -3.55 145.53 -3.55Z M162.56 -30.17L162.56 0L167.27 0L167.27 -14.65L166.77 -21.68L167 -21.68L168.09 -19.07L179.06 0L182.97 0L182.97 -30.17L178.27 -30.17L178.27 -13.48L178.79 -7.55L178.56 -7.55L177.25 -11.04L166.52 -30.17Z"></path></g></g></svg>